<svg width="90" height="90" viewBox="0 0 90 90" xmlns="http://www.w3.org/2000/svg">
    <rect width="90" height="90" fill="#FFE91E"/>
    <g transform="translate(1, 22)">
        <path d="M83.8488 15.0693V8.28994C83.8488 2.35802 80.6769 -0.773736 73.9414 0.184214V4.90027C77.5797 4.51341 78.3074 5.19503 78.3074 8.5847V15.0877C78.3074 17.9431 78.0648 20.3196 81.7404 21.3328C78.0648 22.346 78.3074 24.7225 78.3074 27.5779V34.0809C78.3074 37.4706 77.5797 38.1522 73.9414 37.7653V42.4814C80.6956 43.4393 83.8488 40.3076 83.8488 34.3757V27.5963C83.8488 25.7541 84.1846 23.525 87.2819 23.525V19.159C84.1846 19.159 83.8488 16.9299 83.8488 15.0877V15.0693Z" fill="#32B4D2"/>
        <path d="M3.43307 27.5601V34.3394C3.43307 40.2713 6.60493 43.4031 13.3405 42.4451V37.7291C9.70215 38.1159 8.97449 37.4343 8.97449 34.0447V27.5416C8.97449 24.6862 9.21705 22.3098 5.54142 21.2966C9.21705 20.2833 8.97449 17.9069 8.97449 15.0515V8.54845C8.97449 5.15878 9.70215 4.47717 13.3405 4.86403V0.166391C6.60493 -0.791558 3.43307 2.3402 3.43307 8.27212V15.0515C3.43307 16.8937 3.09723 19.1227 0 19.1227V21.2966V23.4704C3.09723 23.4704 3.43307 25.6994 3.43307 27.5416V27.5601Z" fill="#32B4D2"/>
        <path d="M41.8314 1.19745V35.0757H36.234L35.8422 31.7781C33.9764 34.6336 30.9911 35.6099 28.0431 35.6099C20.9344 35.6099 15.5796 30.9492 15.5796 23.1013C15.5796 14.8667 20.8411 10.5927 27.8939 10.5927C30.45 10.5927 34.4242 11.956 35.8422 14.4245V1.19745H41.8314ZM21.5501 23.1013C21.5501 27.2647 24.5914 30.1386 28.4163 30.1386C32.2412 30.1386 35.4317 27.4305 35.4317 23.1013C35.4317 18.7721 32.1852 16.1194 28.4163 16.1194C24.6474 16.1194 21.5501 18.7906 21.5501 23.1013Z" fill="#141414"/>
        <path d="M45.4507 46V12.177H51.0481L51.4399 15.4746C53.3057 12.8034 56.5522 11.6428 59.2949 11.6428C66.7581 11.6428 71.7211 17.1141 71.7211 24.1514C71.7211 31.1886 67.2619 36.66 59.5001 36.66C56.944 36.66 53.1751 35.8863 51.4586 33.2703V46H45.4693H45.4507ZM65.7319 24.1514C65.7319 20.4117 63.1758 17.372 58.8658 17.372C54.5558 17.372 51.9996 20.4301 51.9996 24.1514C51.9996 27.8726 54.7983 30.9307 58.8658 30.9307C62.9332 30.9307 65.7319 27.8726 65.7319 24.1514Z" fill="#141414"/>
    </g>
</svg>
